<?xml version="1.0" encoding="UTF-8"?>
<svg id="Capa_2" data-name="Capa 2" xmlns="http://www.w3.org/2000/svg" viewBox="0 0 1199.78 930.7">
  <defs>
    <style>
      .cls-1, .cls-2, .cls-3, .cls-4, .cls-5, .cls-6 {
        stroke-linejoin: round;
      }

      .cls-1, .cls-3, .cls-7 {
        stroke-width: 2.78px;
      }

      .cls-1, .cls-7, .cls-8, .cls-5, .cls-6 {
        fill: #fff;
      }

      .cls-1, .cls-7, .cls-5, .cls-6 {
        stroke: #fff;
      }

      .cls-2 {
        stroke-width: 2.84px;
      }

      .cls-2, .cls-3, .cls-4 {
        stroke: #a75ac2;
      }

      .cls-2, .cls-3, .cls-4, .cls-9 {
        fill: #a75ac2;
      }

      .cls-7 {
        stroke-miterlimit: 10;
      }

      .cls-4 {
        stroke-width: 2.75px;
      }

      .cls-9, .cls-8 {
        stroke-width: 0px;
      }

      .cls-5 {
        stroke-width: 2.75px;
      }

      .cls-6 {
        stroke-width: 2.81px;
      }
    </style>
  </defs>
  <g id="Capa_1-2" data-name="Capa 1">
    <g>
      <g>
        <path class="cls-9" d="m347.22,15.43s.29,102.02.29,123.82c0,44.07,45.61,12.27,45.61,12.27l243.03-119.04C583.25,11.6,525.67,0,465.35,0c-46.94,0-113.58,11.57-118.14,15.43Z"/>
        <path class="cls-9" d="m0,465.35c0,164.91,85.86,309.67,215.23,392.33V73.03C85.86,155.68,0,300.44,0,465.35Z"/>
        <path class="cls-9" d="m765.34,109.71c-6.14,3.88-405.29,200.07-405.29,200.07,0,0-12.77,7.8-12.77,20.12,0,20.56-.06,83.99-.06,110.55,0,35.94,23.98,24.95,23.98,24.95l326.19-152.21c10.73-5.12,23.69-.53,28.82,10.19l38.24,80.1c5.12,10.73.53,23.7-10.19,28.82l-394.28,188.22s-12.76,5.54-12.76,19.9v268.27c-.35,2.3-.34,4.49,0,6.79,37.73,9.88,77.31,15.22,118.14,15.22,114.91,0,220.01-41.74,301.19-110.77v-106.07h24.92v13.84c13.07-8.46,26.15-13.92,39.23-16.38v25.15c-13.23,2.62-24.54,6-33.92,10.15l-5.08,2.08v48.26l.51-.47c85.47-84.38,138.49-201.55,138.49-331.14,0-142.67-64.27-270.27-165.36-355.64Z"/>
      </g>
      <path class="cls-8" d="m764.45,403.48l-38.24-80.1c-5.12-10.73-18.09-15.32-28.82-10.19l-326.19,152.21s-23.98,10.98-23.98-24.95c0-26.56.06-89.98.06-110.55,0-12.32,9.56-18.59,12.77-20.12,98.63-47.08,405.29-200.07,405.29-200.07-1.04-2.2-81.83-58.52-129.2-77.22l-243.03,119.04s-45.61,31.8-45.61-12.27c0-21.79-.29-123.82-.29-123.82-8.72,1.03-96.56,34.96-131.99,57.59v784.65c31.31,20,96.18,45.68,131.98,57.81,2.28-5.27,0-193.41,0-275.06,0-14.37,12.76-19.9,12.76-19.9l394.28-188.22c10.73-5.12,15.31-18.09,10.19-28.82Z"/>
      <g>
        <g>
          <path class="cls-2" d="m861.88,736.4v-23h87.98v23l-56.91,72.57h56.91v23h-87.98v-23l57.15-72.57h-57.15Z"/>
          <path class="cls-4" d="m1059.77,809.86l6.43-.69.46,18.61c-17.46,3.52-32.94,5.29-46.42,5.29-17.01,0-29.22-4.67-36.65-14.02-7.43-9.34-11.14-24.28-11.14-44.81,0-40.75,16.62-61.13,49.87-61.13s48.26,17.54,48.26,52.63l-1.61,17.92h-71.24c.15,9.5,2.22,16.47,6.21,20.91,3.98,4.44,11.41,6.66,22.29,6.66s22.06-.46,33.55-1.38Zm-13.79-45.5c0-11.34-1.8-19.26-5.4-23.79-3.6-4.52-9.69-6.78-18.27-6.78s-14.82,2.38-18.73,7.12c-3.91,4.75-5.94,12.56-6.09,23.44h48.49Z"/>
          <path class="cls-3" d="m1126.27,831.97h-25.35v-116.3h25.12v7.21c11.32-6.51,22.02-9.77,32.1-9.77,15.5,0,26.09,4.38,31.75,13.14,5.66,8.76,8.49,23.22,8.49,43.38v62.34h-25.12v-61.64c0-12.56-1.36-21.48-4.07-26.75-2.71-5.27-8.25-7.91-16.63-7.91-7.91,0-15.51,1.55-22.8,4.65l-3.49,1.4v90.25Z"/>
        </g>
        <g>
          <path class="cls-7" d="m796.77,746.63c9.38-4.15,20.69-7.54,33.92-10.15v-25.15c-13.08,2.46-26.16,7.92-39.23,16.38v-13.84h-24.92v104.19c.1-.09,25.15-22.84,25.15-22.84v-46.5l5.08-2.08Z"/>
          <path class="cls-6" d="m430.75,695.9v-26.75h25.35v26.75h-25.35Zm0,136.07v-118.57h25.35v118.57h-25.35Z"/>
          <path class="cls-1" d="m523.79,831.97h-25.35v-116.3h25.12v7.21c11.32-6.51,22.02-9.77,32.1-9.77,15.5,0,26.09,4.38,31.75,13.14,5.66,8.76,8.49,23.22,8.49,43.38v62.34h-25.12v-61.64c0-12.56-1.36-21.48-4.07-26.75-2.71-5.27-8.26-7.91-16.63-7.91-7.91,0-15.51,1.55-22.79,4.65l-3.49,1.4v90.25Z"/>
          <path class="cls-5" d="m718.73,809.77l6.43-.69.46,18.6c-17.45,3.52-32.91,5.28-46.38,5.28-16.99,0-29.2-4.67-36.62-14.01-7.43-9.33-11.14-24.26-11.14-44.77,0-40.71,16.61-61.07,49.82-61.07s48.22,17.53,48.22,52.58l-1.61,17.91h-71.18c.15,9.49,2.22,16.46,6.2,20.89,3.98,4.44,11.4,6.66,22.27,6.66s22.04-.46,33.52-1.38Zm-13.78-45.46c0-11.33-1.8-19.25-5.39-23.76-3.6-4.51-9.68-6.77-18.25-6.77s-14.81,2.38-18.71,7.12c-3.9,4.75-5.93,12.55-6.09,23.42h48.45Z"/>
        </g>
      </g>
    </g>
  </g>
</svg>