<?xml version="1.0" encoding="UTF-8"?>
<svg id="Capa_2" data-name="Capa 2" xmlns="http://www.w3.org/2000/svg" viewBox="0 0 1098.53 1096">
  <defs>
    <style>
      .cls-1 {
        stroke-width: 2.37px;
      }

      .cls-1, .cls-2, .cls-3, .cls-4, .cls-5, .cls-6 {
        stroke-linejoin: round;
      }

      .cls-1, .cls-7, .cls-4, .cls-5 {
        stroke: #fff;
      }

      .cls-1, .cls-7, .cls-4, .cls-5, .cls-8 {
        fill: #fff;
      }

      .cls-2 {
        stroke-width: 2.45px;
      }

      .cls-2, .cls-3, .cls-9, .cls-6 {
        fill: #a75ac2;
      }

      .cls-2, .cls-3, .cls-6 {
        stroke: #a75ac2;
      }

      .cls-7 {
        stroke-miterlimit: 10;
      }

      .cls-7, .cls-3, .cls-5 {
        stroke-width: 2.4px;
      }

      .cls-4 {
        stroke-width: 2.42px;
      }

      .cls-9, .cls-8 {
        stroke-width: 0px;
      }

      .cls-6 {
        stroke-width: 2.37px;
      }
    </style>
  </defs>
  <g id="Capa_1-2" data-name="Capa 1">
    <g>
      <g>
        <path class="cls-9" d="m299.14,13.3s.25,87.9.25,106.68c0,37.97,39.29,10.58,39.29,10.58l209.38-102.56C502.5,9.99,452.89,0,400.92,0c-40.44,0-97.86,9.97-101.78,13.3Z"/>
        <path class="cls-9" d="m0,400.92c0,142.08,73.97,266.8,185.43,338.01V62.91C73.97,134.13,0,258.85,0,400.92Z"/>
        <path class="cls-9" d="m659.38,94.52c-5.29,3.34-349.18,172.37-349.18,172.37,0,0-11,6.72-11,17.33,0,17.72-.06,72.36-.06,95.24,0,30.96,20.66,21.5,20.66,21.5l281.03-131.14c9.24-4.41,20.41-.46,24.83,8.78l32.94,69.01c4.41,9.24.46,20.41-8.78,24.83l-339.69,162.16s-10.99,4.77-10.99,17.15v231.13c-.3,1.98-.29,3.87,0,5.85,32.51,8.51,66.6,13.11,101.78,13.11,99,0,189.55-35.96,259.49-95.43v-91.38h21.47v11.93c11.26-7.29,22.53-11.99,33.8-14.11v21.67c-11.4,2.25-21.14,5.17-29.23,8.75l-4.37,1.79v41.57l.44-.4c73.64-72.69,119.32-173.65,119.32-285.3,0-122.92-55.37-232.86-142.47-306.4Z"/>
      </g>
      <path class="cls-8" d="m658.61,347.62l-32.94-69.01c-4.41-9.24-15.58-13.2-24.83-8.78l-281.03,131.14s-20.66,9.46-20.66-21.5c0-22.88.06-77.52.06-95.24,0-10.61,8.24-16.01,11-17.33,84.97-40.57,349.18-172.37,349.18-172.37-.89-1.9-70.5-50.42-111.31-66.53l-209.38,102.56s-39.29,27.4-39.29-10.58c0-18.78-.25-106.68-.25-106.68-7.52.89-83.19,30.12-113.71,49.62v676.01c26.97,17.23,82.87,39.35,113.71,49.8,1.97-4.54,0-166.63,0-236.98,0-12.38,10.99-17.15,10.99-17.15l339.69-162.16c9.24-4.41,13.19-15.58,8.78-24.83Z"/>
      <g>
        <g>
          <path class="cls-2" d="m742.55,634.45v-19.82h75.8v19.82l-49.03,62.52h49.03v19.82h-75.8v-19.82l49.24-62.52h-49.24Z"/>
          <path class="cls-6" d="m913.05,697.73l5.54-.59.4,16.04c-15.05,3.04-28.38,4.55-39.99,4.55-14.65,0-25.18-4.02-31.58-12.08-6.4-8.05-9.6-20.92-9.6-38.61,0-35.11,14.32-52.66,42.96-52.66s41.58,15.12,41.58,45.34l-1.39,15.44h-61.38c.13,8.19,1.91,14.19,5.35,18.02,3.43,3.83,9.83,5.74,19.2,5.74s19.01-.39,28.91-1.19Zm-11.88-39.2c0-9.77-1.55-16.6-4.65-20.49-3.1-3.89-8.35-5.84-15.74-5.84s-12.77,2.05-16.14,6.14c-3.37,4.09-5.12,10.83-5.25,20.2h41.77Z"/>
          <path class="cls-3" d="m970.34,716.78h-21.84v-100.2h21.64v6.21c9.75-5.61,18.97-8.42,27.65-8.42,13.36,0,22.48,3.78,27.35,11.32,4.88,7.55,7.32,20.01,7.32,37.37v53.71h-21.64v-53.1c0-10.82-1.17-18.5-3.51-23.05-2.34-4.54-7.11-6.81-14.33-6.81-6.81,0-13.36,1.34-19.64,4.01l-3,1.2v77.75Z"/>
        </g>
        <g>
          <path class="cls-7" d="m686.46,643.26c8.08-3.58,17.83-6.49,29.23-8.75v-21.67c-11.27,2.12-22.53,6.83-33.8,14.11v-11.93h-21.47v89.76c.09-.08,21.67-19.68,21.67-19.68v-40.06l4.37-1.79Z"/>
          <path class="cls-4" d="m371.11,599.55v-23.04h21.84v23.04h-21.84Zm0,117.23v-102.15h21.84v102.15h-21.84Z"/>
          <path class="cls-5" d="m451.27,716.78h-21.84v-100.2h21.64v6.21c9.75-5.61,18.97-8.42,27.65-8.42,13.36,0,22.48,3.78,27.35,11.32,4.88,7.55,7.31,20.01,7.31,37.37v53.71h-21.64v-53.1c0-10.82-1.17-18.5-3.51-23.05-2.34-4.54-7.11-6.81-14.33-6.81-6.81,0-13.36,1.34-19.64,4.01l-3.01,1.2v77.75Z"/>
          <path class="cls-1" d="m619.22,697.66l5.54-.59.4,16.02c-15.03,3.03-28.36,4.55-39.96,4.55-14.64,0-25.16-4.02-31.55-12.07-6.4-8.04-9.59-20.9-9.59-38.57,0-35.08,14.31-52.62,42.92-52.62s41.54,15.1,41.54,45.3l-1.38,15.43h-61.32c.13,8.18,1.91,14.18,5.34,18,3.43,3.83,9.82,5.74,19.19,5.74s18.99-.39,28.88-1.18Zm-11.87-39.17c0-9.76-1.55-16.58-4.65-20.47-3.1-3.89-8.34-5.84-15.73-5.84s-12.76,2.05-16.12,6.13c-3.36,4.09-5.11,10.82-5.24,20.18h41.74Z"/>
        </g>
      </g>
      <g>
        <path class="cls-9" d="m181.88,956.77v-93.28h33.74v6.79h-24.87v35h20.27v6.45h-20.27v38.47h25.11v6.56h-33.97Z"/>
        <path class="cls-9" d="m236.11,956.77l-14.4-66.56h8.53l10.82,56.89,10.71-56.89h8.17l-13.94,66.56h-9.91Z"/>
        <path class="cls-9" d="m284.83,957.81c-4.53,0-8.1-.98-10.71-2.94-2.61-1.96-4.43-4.8-5.46-8.52-1.04-3.72-1.56-8.28-1.56-13.65v-18.43c0-5.38.52-9.92,1.56-13.65,1.03-3.73,2.86-6.57,5.46-8.53,2.61-1.96,6.19-2.93,10.71-2.93s8.19.97,10.77,2.93c2.57,1.96,4.38,4.8,5.42,8.53,1.03,3.72,1.55,8.27,1.55,13.65v18.43c0,5.37-.52,9.92-1.55,13.65-1.04,3.72-2.85,6.56-5.42,8.52-2.58,1.96-6.16,2.94-10.77,2.94Zm0-6.34c2.91,0,5.05-.77,6.39-2.31s2.16-3.68,2.47-6.45c.31-2.76.46-5.95.46-9.56v-19.34c0-3.61-.15-6.78-.46-9.5-.31-2.73-1.13-4.87-2.47-6.45s-3.48-2.36-6.39-2.36-5.03.79-6.34,2.36-2.13,3.72-2.47,6.45c-.35,2.73-.52,5.89-.52,9.5v19.34c0,3.61.17,6.79.52,9.56.35,2.76,1.17,4.91,2.47,6.45s3.42,2.31,6.34,2.31Z"/>
        <path class="cls-9" d="m315.47,956.77v-93.28h8.41v93.28h-8.41Z"/>
        <path class="cls-9" d="m347.36,957.81c-2.22,0-4.1-.56-5.64-1.68-1.54-1.11-2.71-2.72-3.51-4.84-.81-2.11-1.21-4.66-1.21-7.66v-53.43h8.41v51.59c0,3.45.54,5.89,1.61,7.31,1.08,1.42,2.69,2.13,4.85,2.13,2,0,4.01-.63,6.04-1.9,2.03-1.27,3.93-2.86,5.7-4.78v-54.35h8.41v66.56h-8.41v-7.37c-2.15,2.46-4.61,4.47-7.37,6.04-2.76,1.57-5.73,2.36-8.88,2.36Z"/>
        <path class="cls-9" d="m401.49,957.81c-5.15,0-8.99-1.15-11.52-3.46-2.54-2.31-4.21-5.44-5.01-9.39-.81-3.95-1.21-8.42-1.21-13.41v-15.55c0-6.14.5-11.19,1.5-15.14.99-3.95,2.78-6.89,5.35-8.81,2.58-1.92,6.2-2.88,10.89-2.88s8.36.88,10.82,2.65c2.46,1.76,4.1,4.25,4.95,7.48.84,3.22,1.27,6.99,1.27,11.29v3.1h-7.83v-3.22c0-3.92-.29-6.94-.87-9.1-.57-2.15-1.54-3.66-2.88-4.55-1.34-.88-3.13-1.32-5.35-1.32-2.61,0-4.61.61-5.99,1.84-1.39,1.24-2.31,3.25-2.76,6.05-.46,2.8-.69,6.54-.69,11.23v18.65c0,6.68.66,11.39,1.96,14.11,1.3,2.72,3.84,4.09,7.6,4.09,2.61,0,4.56-.6,5.88-1.79,1.3-1.19,2.15-2.97,2.53-5.35s.58-5.33.58-8.87v-3.68h7.83v3.22c0,4.45-.42,8.39-1.27,11.8-.84,3.42-2.47,6.1-4.89,8.06s-6.04,2.94-10.88,2.94Z"/>
        <path class="cls-9" d="m430.62,880.99v-11.4h8.41v11.4h-8.41Zm0,75.78v-66.56h8.41v66.56h-8.41Z"/>
        <path class="cls-9" d="m469.66,957.81c-4.54,0-8.11-.98-10.71-2.94-2.61-1.96-4.43-4.8-5.47-8.52-1.03-3.72-1.56-8.28-1.56-13.65v-18.43c0-5.38.52-9.92,1.56-13.65,1.04-3.73,2.86-6.57,5.47-8.53,2.61-1.96,6.18-2.93,10.71-2.93s8.19.97,10.76,2.93c2.58,1.96,4.38,4.8,5.42,8.53,1.04,3.72,1.56,8.27,1.56,13.65v18.43c0,5.37-.52,9.92-1.56,13.65-1.04,3.72-2.84,6.56-5.42,8.52-2.57,1.96-6.16,2.94-10.76,2.94Zm0-6.34c2.91,0,5.04-.77,6.39-2.31,1.34-1.54,2.16-3.68,2.47-6.45.3-2.76.46-5.95.46-9.56v-19.34c0-3.61-.16-6.78-.46-9.5-.31-2.73-1.13-4.87-2.47-6.45-1.35-1.57-3.48-2.36-6.39-2.36s-5.03.79-6.34,2.36c-1.31,1.57-2.14,3.72-2.47,6.45-.35,2.73-.52,5.89-.52,9.5v19.34c0,3.61.18,6.79.52,9.56.34,2.76,1.16,4.91,2.47,6.45,1.3,1.54,3.41,2.31,6.34,2.31Z"/>
        <path class="cls-9" d="m499.14,956.77v-66.56h8.41v6.91c2.15-2.31,4.56-4.21,7.25-5.7,2.69-1.5,5.6-2.25,8.75-2.25,2.22,0,4.09.55,5.59,1.67,1.5,1.12,2.65,2.73,3.46,4.84.81,2.12,1.21,4.67,1.21,7.66v53.44h-8.41v-51.59c0-3.46-.54-5.89-1.61-7.31-1.08-1.42-2.69-2.14-4.85-2.14-1.84,0-3.76.58-5.75,1.73-2,1.15-3.88,2.64-5.64,4.49v54.82h-8.41Z"/>
        <path class="cls-9" d="m557.64,957.81c-2.61,0-4.91-.67-6.91-2.01-2-1.35-3.57-3.13-4.72-5.36-1.15-2.22-1.72-4.72-1.72-7.49,0-3.37.5-6.25,1.5-8.63.99-2.38,2.55-4.51,4.66-6.39,2.12-1.88,4.88-3.72,8.29-5.53,3.42-1.8,7.58-3.81,12.49-6.04v-4.72c0-4.07-.24-7.27-.74-9.62-.51-2.34-1.35-4.01-2.54-5-1.19-1-2.86-1.5-5-1.5-1.77,0-3.35.35-4.72,1.03-1.39.69-2.49,1.87-3.35,3.51-.84,1.65-1.27,3.94-1.27,6.85v2.31l-8.28-.11c.07-6.76,1.51-11.77,4.31-15.03,2.8-3.26,7.39-4.89,13.77-4.89,5.91,0,10.09,1.78,12.55,5.35,2.46,3.57,3.68,9.12,3.68,16.64v32.36c0,1.15.02,2.63.07,4.43.04,1.81.11,3.51.22,5.13.11,1.61.22,2.84.29,3.68h-7.49c-.22-1.46-.48-3.09-.75-4.89-.27-1.81-.44-3.24-.52-4.32-.92,2.69-2.55,5.07-4.89,7.14s-5.32,3.11-8.93,3.11Zm2.76-7.14c1.69,0,3.21-.4,4.55-1.21,1.34-.81,2.57-1.83,3.68-3.06,1.12-1.23,1.98-2.46,2.59-3.68v-20.73c-3.3,1.77-6.12,3.32-8.46,4.67-2.34,1.34-4.25,2.66-5.7,3.97-1.46,1.3-2.53,2.78-3.22,4.43s-1.04,3.59-1.04,5.81c0,3.53.75,6.04,2.25,7.54s3.28,2.25,5.35,2.25Z"/>
        <path class="cls-9" d="m591.96,956.77v-66.56h7.83v6.79c2.23-2.61,4.69-4.59,7.38-5.93,2.69-1.35,5.45-2.01,8.29-2.01,2.3,0,4.43.61,6.39,1.84,1.96,1.23,3.36,3.53,4.2,6.92,2.23-2.92,4.74-5.11,7.54-6.57,2.8-1.45,5.74-2.18,8.81-2.18,1.92,0,3.74.46,5.47,1.38,1.72.92,3.12,2.49,4.2,4.72,1.08,2.23,1.61,5.26,1.61,9.1v52.51h-7.95v-52.29c0-3.92-.61-6.5-1.84-7.77-1.23-1.27-2.8-1.9-4.72-1.9-2.15,0-4.3.62-6.45,1.85-2.16,1.23-4.19,2.91-6.1,5.06.07.38.11.79.11,1.21v53.84h-7.83v-52.29c0-3.92-.63-6.5-1.89-7.77-1.27-1.27-2.87-1.9-4.78-1.9-2.08,0-4.19.62-6.34,1.85-2.16,1.23-4.19,2.88-6.11,4.95v55.16h-7.83Z"/>
        <path class="cls-9" d="m682.59,957.81c-4.54,0-8.11-.98-10.71-2.94-2.61-1.96-4.43-4.8-5.47-8.52-1.03-3.72-1.56-8.28-1.56-13.65v-18.43c0-5.38.52-9.92,1.56-13.65,1.04-3.73,2.86-6.57,5.47-8.53,2.61-1.96,6.18-2.93,10.71-2.93s8.19.97,10.76,2.93c2.58,1.96,4.38,4.8,5.42,8.53,1.04,3.72,1.56,8.27,1.56,13.65v18.43c0,5.37-.52,9.92-1.56,13.65s-2.84,6.56-5.42,8.52c-2.57,1.96-6.16,2.94-10.76,2.94Zm0-6.34c2.91,0,5.04-.77,6.39-2.31,1.34-1.54,2.16-3.68,2.47-6.45.3-2.76.46-5.95.46-9.56v-19.34c0-3.61-.16-6.78-.46-9.5-.31-2.73-1.13-4.87-2.47-6.45-1.35-1.57-3.48-2.36-6.39-2.36s-5.03.79-6.34,2.36c-1.31,1.57-2.14,3.72-2.47,6.45-.35,2.73-.52,5.89-.52,9.5v19.34c0,3.61.18,6.79.52,9.56.34,2.76,1.16,4.91,2.47,6.45,1.3,1.54,3.41,2.31,6.34,2.31Z"/>
        <path class="cls-9" d="m727.27,957.81c-5.3,0-9.52-1.72-12.67-5.13-3.15-3.42-4.95-8-5.41-13.77l7.02-2.07c.46,5.07,1.65,8.77,3.57,11.12,1.92,2.34,4.61,3.51,8.06,3.51,2.92,0,5.16-.82,6.74-2.47,1.57-1.66,2.36-3.97,2.36-6.97,0-2.15-.66-4.32-1.96-6.5-1.3-2.19-3.37-4.47-6.21-6.85l-8.99-7.83c-2.99-2.53-5.26-5.07-6.79-7.6s-2.31-5.57-2.31-9.1c0-3.22.67-5.92,2.01-8.12,1.35-2.18,3.19-3.87,5.53-5.07,2.34-1.19,5.13-1.78,8.35-1.78,5.07,0,8.9,1.63,11.52,4.89,2.61,3.26,4.03,7.47,4.26,12.61l-5.99,1.96c-.16-3-.62-5.47-1.39-7.43-.77-1.96-1.82-3.39-3.17-4.32-1.34-.92-2.97-1.38-4.89-1.38-2.53,0-4.59.71-6.16,2.13-1.57,1.42-2.36,3.4-2.36,5.93,0,2,.38,3.76,1.15,5.3.76,1.54,2.18,3.26,4.25,5.18l9.45,8.41c1.84,1.61,3.61,3.35,5.3,5.18,1.69,1.85,3.07,3.9,4.14,6.17,1.08,2.26,1.62,4.93,1.62,8,0,3.45-.71,6.35-2.14,8.69-1.42,2.34-3.39,4.15-5.93,5.42-2.53,1.27-5.52,1.9-8.98,1.9Z"/>
        <path class="cls-9" d="m196.04,1095.77c-3.22,0-5.72-.64-7.48-1.9-1.77-1.27-2.96-2.99-3.57-5.18-.62-2.18-.93-4.7-.93-7.54v-47.22h-8.17v-5.52h8.17v-20.62h8.41v20.62h11.06v5.52h-11.06v46.41c0,3.22.37,5.51,1.1,6.86.73,1.34,2.32,2.01,4.78,2.01.69,0,1.46-.07,2.31-.18s1.65-.21,2.42-.29v6.34c-1.15.23-2.32.4-3.51.52-1.19.11-2.36.17-3.51.17Z"/>
        <path class="cls-9" d="m222.3,1096c-2.23,0-4.1-.56-5.64-1.68-1.54-1.11-2.71-2.72-3.51-4.84-.81-2.11-1.21-4.66-1.21-7.66v-53.43h8.41v51.59c0,3.45.53,5.89,1.61,7.31,1.08,1.42,2.69,2.13,4.84,2.13,2,0,4.01-.63,6.04-1.9,2.03-1.27,3.94-2.86,5.7-4.78v-54.35h8.41v66.56h-8.41v-7.37c-2.15,2.46-4.6,4.47-7.37,6.04-2.76,1.57-5.72,2.36-8.87,2.36Z"/>
        <path class="cls-9" d="m275.16,1096c-5.3,0-9.52-1.72-12.67-5.13-3.15-3.42-4.95-8-5.41-13.77l7.02-2.07c.46,5.07,1.65,8.77,3.57,11.12,1.92,2.34,4.61,3.51,8.06,3.51,2.92,0,5.16-.82,6.74-2.47,1.57-1.66,2.36-3.97,2.36-6.97,0-2.15-.66-4.32-1.96-6.5-1.3-2.19-3.37-4.47-6.21-6.85l-8.99-7.83c-2.99-2.53-5.26-5.07-6.79-7.6-1.54-2.53-2.31-5.57-2.31-9.1,0-3.22.67-5.92,2.01-8.12,1.35-2.18,3.19-3.87,5.53-5.07,2.34-1.19,5.13-1.78,8.35-1.78,5.07,0,8.9,1.63,11.52,4.89,2.61,3.26,4.03,7.47,4.26,12.61l-5.99,1.96c-.16-3-.62-5.47-1.39-7.43s-1.82-3.39-3.17-4.32c-1.34-.92-2.97-1.38-4.89-1.38-2.53,0-4.59.71-6.16,2.13-1.57,1.42-2.36,3.4-2.36,5.93,0,2,.38,3.76,1.15,5.3.76,1.54,2.18,3.26,4.25,5.18l9.45,8.41c1.84,1.61,3.61,3.35,5.3,5.18,1.69,1.85,3.07,3.9,4.14,6.17,1.08,2.26,1.62,4.93,1.62,8,0,3.45-.71,6.35-2.14,8.69-1.42,2.34-3.39,4.15-5.93,5.42-2.53,1.27-5.52,1.9-8.98,1.9Z"/>
        <path class="cls-9" d="m326.97,1094.96v-93.28h33.51v6.56h-24.76v35.13h20.62v6.45h-20.62v45.14h-8.75Z"/>
        <path class="cls-9" d="m370.62,1019.18v-11.4h8.41v11.4h-8.41Zm0,75.78v-66.56h8.41v66.56h-8.41Z"/>
        <path class="cls-9" d="m393.19,1094.96v-66.56h8.41v6.91c2.16-2.31,4.57-4.21,7.26-5.7,2.68-1.5,5.6-2.25,8.74-2.25,2.23,0,4.1.55,5.59,1.67,1.5,1.12,2.65,2.73,3.46,4.84.81,2.12,1.21,4.67,1.21,7.66v53.44h-8.41v-51.59c0-3.46-.53-5.89-1.61-7.31-1.08-1.42-2.69-2.14-4.84-2.14-1.85,0-3.77.58-5.75,1.73-2.01,1.15-3.88,2.64-5.65,4.49v54.82h-8.41Z"/>
        <path class="cls-9" d="m451.69,1096c-2.61,0-4.91-.67-6.91-2.01-2-1.35-3.57-3.13-4.72-5.36-1.15-2.22-1.72-4.72-1.72-7.49,0-3.37.5-6.25,1.5-8.63.99-2.38,2.55-4.51,4.66-6.39,2.12-1.88,4.88-3.72,8.29-5.53,3.42-1.8,7.58-3.81,12.49-6.04v-4.72c0-4.07-.24-7.27-.74-9.62-.51-2.34-1.35-4.01-2.54-5-1.19-1-2.86-1.5-5-1.5-1.77,0-3.35.35-4.72,1.03-1.39.69-2.49,1.87-3.35,3.51-.84,1.65-1.27,3.94-1.27,6.85v2.31l-8.28-.11c.07-6.76,1.51-11.77,4.31-15.03s7.39-4.89,13.77-4.89c5.91,0,10.09,1.78,12.55,5.35,2.46,3.57,3.68,9.12,3.68,16.64v32.36c0,1.15.02,2.63.07,4.43.04,1.81.11,3.51.22,5.13.11,1.61.22,2.84.29,3.68h-7.49c-.22-1.46-.48-3.09-.75-4.89-.27-1.81-.44-3.24-.52-4.32-.92,2.69-2.55,5.07-4.89,7.14s-5.32,3.11-8.93,3.11Zm2.76-7.14c1.69,0,3.21-.4,4.55-1.21,1.34-.81,2.57-1.83,3.68-3.06,1.12-1.23,1.98-2.46,2.59-3.68v-20.73c-3.3,1.77-6.12,3.32-8.46,4.67-2.34,1.34-4.25,2.66-5.7,3.97-1.46,1.3-2.53,2.78-3.22,4.43s-1.04,3.59-1.04,5.81c0,3.53.75,6.04,2.25,7.54s3.28,2.25,5.35,2.25Z"/>
        <path class="cls-9" d="m486.01,1094.96v-66.56h8.41v6.91c2.15-2.31,4.56-4.21,7.25-5.7,2.69-1.5,5.6-2.25,8.75-2.25,2.22,0,4.09.55,5.59,1.67s2.65,2.73,3.46,4.84c.81,2.12,1.21,4.67,1.21,7.66v53.44h-8.41v-51.59c0-3.46-.54-5.89-1.61-7.31-1.08-1.42-2.69-2.14-4.85-2.14-1.84,0-3.76.58-5.75,1.73-2,1.15-3.88,2.64-5.64,4.49v54.82h-8.41Z"/>
        <path class="cls-9" d="m530.34,1094.96v-5.88l22.69-54.24h-20.27v-6.45h29.14v5.06l-22.58,55.05h22.12v6.45h-31.1Z"/>
        <path class="cls-9" d="m582.86,1096c-2.61,0-4.91-.67-6.91-2.01-2-1.35-3.57-3.13-4.72-5.36-1.15-2.22-1.72-4.72-1.72-7.49,0-3.37.5-6.25,1.5-8.63.99-2.38,2.55-4.51,4.66-6.39,2.12-1.88,4.88-3.72,8.29-5.53,3.42-1.8,7.58-3.81,12.49-6.04v-4.72c0-4.07-.24-7.27-.74-9.62-.51-2.34-1.35-4.01-2.54-5-1.19-1-2.86-1.5-5-1.5-1.77,0-3.35.35-4.72,1.03-1.39.69-2.49,1.87-3.35,3.51-.84,1.65-1.27,3.94-1.27,6.85v2.31l-8.28-.11c.07-6.76,1.51-11.77,4.31-15.03,2.8-3.26,7.39-4.89,13.77-4.89,5.91,0,10.09,1.78,12.55,5.35,2.46,3.57,3.68,9.12,3.68,16.64v32.36c0,1.15.02,2.63.07,4.43.04,1.81.11,3.51.22,5.13.11,1.61.22,2.84.29,3.68h-7.49c-.22-1.46-.48-3.09-.75-4.89-.27-1.81-.44-3.24-.52-4.32-.92,2.69-2.55,5.07-4.89,7.14s-5.32,3.11-8.93,3.11Zm2.76-7.14c1.69,0,3.21-.4,4.55-1.21,1.34-.81,2.57-1.83,3.68-3.06,1.12-1.23,1.98-2.46,2.59-3.68v-20.73c-3.3,1.77-6.12,3.32-8.46,4.67-2.34,1.34-4.25,2.66-5.7,3.97-1.46,1.3-2.53,2.78-3.22,4.43s-1.04,3.59-1.04,5.81c0,3.53.75,6.04,2.25,7.54,1.5,1.5,3.28,2.25,5.35,2.25Z"/>
        <path class="cls-9" d="m632.38,1096c-5.3,0-9.52-1.72-12.67-5.13-3.15-3.42-4.95-8-5.41-13.77l7.02-2.07c.46,5.07,1.65,8.77,3.57,11.12,1.92,2.34,4.61,3.51,8.06,3.51,2.92,0,5.16-.82,6.74-2.47,1.57-1.66,2.36-3.97,2.36-6.97,0-2.15-.66-4.32-1.96-6.5-1.3-2.19-3.37-4.47-6.21-6.85l-8.99-7.83c-2.99-2.53-5.26-5.07-6.79-7.6-1.54-2.53-2.31-5.57-2.31-9.1,0-3.22.67-5.92,2.01-8.12,1.35-2.18,3.19-3.87,5.53-5.07,2.34-1.19,5.13-1.78,8.35-1.78,5.07,0,8.9,1.63,11.52,4.89,2.61,3.26,4.03,7.47,4.26,12.61l-5.99,1.96c-.16-3-.62-5.47-1.39-7.43-.77-1.96-1.82-3.39-3.17-4.32-1.34-.92-2.97-1.38-4.89-1.38-2.53,0-4.59.71-6.16,2.13-1.57,1.42-2.36,3.4-2.36,5.93,0,2,.38,3.76,1.15,5.3.76,1.54,2.18,3.26,4.25,5.18l9.45,8.41c1.84,1.61,3.61,3.35,5.3,5.18,1.69,1.85,3.07,3.9,4.14,6.17,1.08,2.26,1.62,4.93,1.62,8,0,3.45-.71,6.35-2.14,8.69-1.42,2.34-3.39,4.15-5.93,5.42-2.53,1.27-5.52,1.9-8.98,1.9Z"/>
        <path class="cls-9" d="m684.19,1094.96v-93.28h22.34c5.6,0,10,1.03,13.19,3.1,3.19,2.08,5.47,4.96,6.85,8.64,1.39,3.68,2.07,8.02,2.07,13.02,0,4.38-.7,8.43-2.13,12.15-1.42,3.72-3.76,6.7-7.03,8.92-3.26,2.23-7.53,3.35-12.84,3.35h-13.7v44.1h-8.75Zm8.75-50.67h11.17c3.76,0,6.81-.55,9.16-1.67,2.34-1.12,4.05-2.97,5.13-5.59,1.07-2.61,1.61-6.14,1.61-10.59,0-4.76-.46-8.47-1.39-11.12-.92-2.65-2.51-4.49-4.78-5.53-2.26-1.04-5.46-1.56-9.62-1.56h-11.28v36.04Z"/>
        <path class="cls-9" d="m753.99,1096c-4.15,0-7.54-.83-10.2-2.48-2.64-1.65-4.6-4.39-5.88-8.23-1.27-3.84-1.89-8.94-1.89-15.31v-16.82c0-6.6.65-11.76,1.96-15.48,1.3-3.73,3.3-6.37,5.99-7.95,2.68-1.57,6.03-2.36,10.02-2.36,4.75,0,8.36,1,10.82,2.99,2.46,2.01,4.16,5.01,5.13,9.04.96,4.03,1.43,9.19,1.43,15.49v5.99h-26.94v11.63c0,4.3.32,7.69.97,10.19.66,2.5,1.69,4.28,3.11,5.36,1.42,1.08,3.24,1.61,5.47,1.61,1.69,0,3.22-.33,4.6-.98,1.39-.65,2.47-1.91,3.28-3.8.81-1.88,1.21-4.55,1.21-8v-4.61h8.18v3.68c0,6.07-1.27,10.93-3.8,14.57-2.53,3.65-7.02,5.47-13.47,5.47Zm-9.56-39.96h18.65v-5.53c0-3.53-.19-6.54-.57-9.04-.38-2.49-1.21-4.41-2.47-5.75s-3.28-2.01-6.04-2.01c-2.31,0-4.17.5-5.59,1.5-1.42.99-2.44,2.78-3.06,5.35s-.92,6.24-.92,10.99v4.5Z"/>
        <path class="cls-9" d="m783.35,1094.96v-66.56h8.52v9.09c2.15-3.52,4.61-6.04,7.38-7.54,2.76-1.49,5.41-2.24,7.94-2.24h.69c.23,0,.5.04.81.11v8.99c-.53-.23-1.19-.4-1.96-.52-.77-.11-1.49-.17-2.18-.17-2.61,0-4.98.61-7.09,1.84-2.11,1.24-3.97,3.19-5.59,5.88v51.13h-8.52Z"/>
        <path class="cls-9" d="m832.18,1096c-5.3,0-9.52-1.72-12.67-5.13-3.15-3.42-4.95-8-5.41-13.77l7.02-2.07c.46,5.07,1.65,8.77,3.57,11.12s4.61,3.51,8.06,3.51c2.92,0,5.16-.82,6.74-2.47,1.57-1.66,2.36-3.97,2.36-6.97,0-2.15-.66-4.32-1.96-6.5-1.3-2.19-3.37-4.47-6.21-6.85l-8.99-7.83c-2.99-2.53-5.26-5.07-6.79-7.6-1.54-2.53-2.31-5.57-2.31-9.1,0-3.22.67-5.92,2.01-8.12,1.35-2.18,3.19-3.87,5.53-5.07,2.34-1.19,5.13-1.78,8.35-1.78,5.07,0,8.9,1.63,11.52,4.89,2.61,3.26,4.03,7.47,4.26,12.61l-5.99,1.96c-.16-3-.62-5.47-1.39-7.43s-1.82-3.39-3.17-4.32c-1.34-.92-2.97-1.38-4.89-1.38-2.53,0-4.59.71-6.16,2.13-1.57,1.42-2.36,3.4-2.36,5.93,0,2,.38,3.76,1.15,5.3.76,1.54,2.18,3.26,4.25,5.18l9.45,8.41c1.84,1.61,3.61,3.35,5.3,5.18,1.69,1.85,3.07,3.9,4.14,6.17,1.08,2.26,1.62,4.93,1.62,8,0,3.45-.71,6.35-2.14,8.69-1.42,2.34-3.39,4.15-5.93,5.42-2.53,1.27-5.52,1.9-8.98,1.9Z"/>
        <path class="cls-9" d="m875.25,1096c-4.54,0-8.11-.98-10.71-2.94-2.61-1.96-4.43-4.8-5.47-8.52-1.03-3.72-1.56-8.28-1.56-13.65v-18.43c0-5.38.52-9.92,1.56-13.65,1.04-3.73,2.86-6.57,5.47-8.53,2.61-1.96,6.18-2.93,10.71-2.93s8.19.97,10.76,2.93c2.58,1.96,4.38,4.8,5.42,8.53,1.04,3.72,1.56,8.27,1.56,13.65v18.43c0,5.37-.52,9.92-1.56,13.65-1.04,3.72-2.84,6.56-5.42,8.52-2.57,1.96-6.16,2.94-10.76,2.94Zm0-6.34c2.91,0,5.04-.77,6.39-2.31,1.34-1.54,2.16-3.68,2.47-6.45.3-2.76.46-5.95.46-9.56v-19.34c0-3.61-.16-6.78-.46-9.5-.31-2.73-1.13-4.87-2.47-6.45-1.35-1.57-3.48-2.36-6.39-2.36s-5.03.79-6.34,2.36c-1.31,1.57-2.14,3.72-2.47,6.45-.35,2.73-.52,5.89-.52,9.5v19.34c0,3.61.18,6.79.52,9.56.34,2.76,1.16,4.91,2.47,6.45,1.3,1.54,3.41,2.31,6.34,2.31Z"/>
        <path class="cls-9" d="m904.72,1094.96v-66.56h8.41v6.91c2.15-2.31,4.56-4.21,7.25-5.7,2.69-1.5,5.6-2.25,8.75-2.25,2.22,0,4.09.55,5.59,1.67s2.65,2.73,3.46,4.84c.81,2.12,1.21,4.67,1.21,7.66v53.44h-8.41v-51.59c0-3.46-.54-5.89-1.61-7.31-1.08-1.42-2.69-2.14-4.85-2.14-1.84,0-3.76.58-5.75,1.73-2,1.15-3.88,2.64-5.64,4.49v54.82h-8.41Z"/>
        <path class="cls-9" d="m963.22,1096c-2.61,0-4.91-.67-6.91-2.01-2-1.35-3.57-3.13-4.72-5.36-1.15-2.22-1.72-4.72-1.72-7.49,0-3.37.5-6.25,1.5-8.63.99-2.38,2.55-4.51,4.66-6.39,2.12-1.88,4.88-3.72,8.29-5.53,3.42-1.8,7.58-3.81,12.49-6.04v-4.72c0-4.07-.24-7.27-.74-9.62-.51-2.34-1.35-4.01-2.54-5-1.19-1-2.86-1.5-5-1.5-1.77,0-3.35.35-4.72,1.03-1.39.69-2.49,1.87-3.35,3.51-.84,1.65-1.27,3.94-1.27,6.85v2.31l-8.28-.11c.07-6.76,1.51-11.77,4.31-15.03,2.8-3.26,7.39-4.89,13.77-4.89,5.91,0,10.09,1.78,12.55,5.35,2.46,3.57,3.68,9.12,3.68,16.64v32.36c0,1.15.02,2.63.07,4.43.04,1.81.11,3.51.22,5.13s.22,2.84.29,3.68h-7.49c-.22-1.46-.48-3.09-.75-4.89-.27-1.81-.44-3.24-.52-4.32-.92,2.69-2.55,5.07-4.89,7.14s-5.32,3.11-8.93,3.11Zm2.76-7.14c1.69,0,3.21-.4,4.55-1.21,1.34-.81,2.57-1.83,3.68-3.06s1.98-2.46,2.59-3.68v-20.73c-3.3,1.77-6.12,3.32-8.46,4.67-2.34,1.34-4.25,2.66-5.7,3.97-1.46,1.3-2.53,2.78-3.22,4.43s-1.04,3.59-1.04,5.81c0,3.53.75,6.04,2.25,7.54s3.28,2.25,5.35,2.25Z"/>
        <path class="cls-9" d="m998.7,1094.96v-93.28h8.41v93.28h-8.41Z"/>
        <path class="cls-9" d="m1037.5,1096c-4.15,0-7.54-.83-10.2-2.48-2.64-1.65-4.6-4.39-5.88-8.23-1.27-3.84-1.89-8.94-1.89-15.31v-16.82c0-6.6.65-11.76,1.96-15.48,1.3-3.73,3.3-6.37,5.99-7.95,2.68-1.57,6.03-2.36,10.02-2.36,4.75,0,8.36,1,10.82,2.99,2.46,2.01,4.16,5.01,5.13,9.04.96,4.03,1.43,9.19,1.43,15.49v5.99h-26.94v11.63c0,4.3.32,7.69.97,10.19.66,2.5,1.69,4.28,3.11,5.36,1.42,1.08,3.24,1.61,5.47,1.61,1.69,0,3.22-.33,4.6-.98,1.39-.65,2.47-1.91,3.28-3.8.81-1.88,1.21-4.55,1.21-8v-4.61h8.18v3.68c0,6.07-1.27,10.93-3.8,14.57-2.53,3.65-7.02,5.47-13.47,5.47Zm-9.56-39.96h18.65v-5.53c0-3.53-.19-6.54-.57-9.04-.38-2.49-1.21-4.41-2.47-5.75s-3.28-2.01-6.04-2.01c-2.31,0-4.17.5-5.59,1.5-1.42.99-2.44,2.78-3.06,5.35s-.92,6.24-.92,10.99v4.5Z"/>
        <path class="cls-9" d="m1081.49,1096c-5.3,0-9.51-1.72-12.66-5.13-3.15-3.42-4.96-8-5.42-13.77l7.03-2.07c.46,5.07,1.65,8.77,3.57,11.12,1.91,2.34,4.6,3.51,8.06,3.51,2.91,0,5.16-.82,6.74-2.47,1.57-1.66,2.36-3.97,2.36-6.97,0-2.15-.66-4.32-1.96-6.5-1.31-2.19-3.38-4.47-6.22-6.85l-8.98-7.83c-3-2.53-5.27-5.07-6.79-7.6-1.54-2.53-2.31-5.57-2.31-9.1,0-3.22.67-5.92,2.01-8.12,1.34-2.18,3.19-3.87,5.53-5.07,2.34-1.19,5.13-1.78,8.35-1.78,5.06,0,8.9,1.63,11.51,4.89,2.61,3.26,4.04,7.47,4.26,12.61l-5.99,1.96c-.15-3-.62-5.47-1.38-7.43-.77-1.96-1.83-3.39-3.17-4.32-1.35-.92-2.98-1.38-4.89-1.38-2.54,0-4.59.71-6.17,2.13-1.57,1.42-2.36,3.4-2.36,5.93,0,2,.38,3.76,1.15,5.3s2.19,3.26,4.26,5.18l9.44,8.41c1.85,1.61,3.61,3.35,5.3,5.18,1.69,1.85,3.06,3.9,4.14,6.17,1.08,2.26,1.61,4.93,1.61,8,0,3.45-.71,6.35-2.13,8.69-1.42,2.34-3.4,4.15-5.93,5.42s-5.53,1.9-8.99,1.9Z"/>
      </g>
    </g>
  </g>
</svg>