<?xml version="1.0" encoding="UTF-8"?>
<svg id="Capa_2" data-name="Capa 2" xmlns="http://www.w3.org/2000/svg" viewBox="0 0 930.7 930.7">
  <defs>
    <style>
      .cls-1 {
        fill: #a75ac2;
      }

      .cls-1, .cls-2 {
        stroke-width: 0px;
      }

      .cls-2 {
        fill: #fff;
      }
    </style>
  </defs>
  <g id="Capa_1-2" data-name="Capa 1">
    <g>
      <g>
        <path class="cls-1" d="m347.22,15.43s.29,102.02.29,123.82c0,44.07,45.61,12.27,45.61,12.27l243.03-119.04C583.25,11.6,525.67,0,465.35,0c-46.94,0-113.58,11.57-118.14,15.43Z"/>
        <path class="cls-1" d="m0,465.35c0,164.91,85.86,309.67,215.23,392.33V73.03C85.86,155.68,0,300.44,0,465.35Z"/>
        <path class="cls-1" d="m765.34,109.71c-6.14,3.88-405.29,200.07-405.29,200.07,0,0-12.77,7.8-12.77,20.12,0,20.56-.06,83.99-.06,110.55,0,35.94,23.98,24.95,23.98,24.95l326.19-152.21c10.73-5.12,23.69-.53,28.82,10.19l38.24,80.1c5.12,10.73.53,23.7-10.19,28.82l-394.28,188.22s-12.76,5.54-12.76,19.9v268.27c-.35,2.3-.34,4.49,0,6.79,37.73,9.88,77.31,15.22,118.14,15.22,114.91,0,220.01-41.74,301.19-110.77l25.15-22.97.51-.47c85.47-84.38,138.49-201.55,138.49-331.14,0-142.67-64.27-270.27-165.36-355.64Z"/>
      </g>
      <path class="cls-2" d="m764.45,403.48l-38.24-80.1c-5.12-10.73-18.09-15.32-28.82-10.19l-326.19,152.21s-23.98,10.98-23.98-24.95c0-26.56.06-89.98.06-110.55,0-12.32,9.56-18.59,12.77-20.12,98.63-47.08,405.29-200.07,405.29-200.07-1.04-2.2-81.83-58.52-129.2-77.22l-243.03,119.04s-45.61,31.8-45.61-12.27c0-21.79-.29-123.82-.29-123.82-8.72,1.03-96.56,34.96-131.99,57.59v784.65c31.31,20,96.18,45.68,131.98,57.81,2.28-5.27,0-193.41,0-275.06,0-14.37,12.76-19.9,12.76-19.9l394.28-188.22c10.73-5.12,15.31-18.09,10.19-28.82Z"/>
    </g>
  </g>
</svg>